<?xml version="1.0" encoding="utf-8"?>
<!-- Generator: Adobe Illustrator 25.4.1, SVG Export Plug-In . SVG Version: 6.00 Build 0)  -->
<svg version="1.0" id="katman_1" xmlns="http://www.w3.org/2000/svg" xmlns:xlink="http://www.w3.org/1999/xlink" x="0px" y="0px"
	 viewBox="0 0 167.9 106.1" style="enable-background:new 0 0 167.9 106.1;" xml:space="preserve">
<style type="text/css">
	.st0{fill:#020760;}
	.st1{fill:url(#Path_00000150806415657710275250000012362130671919056001_);}
	.st2{fill:#F624A0;}
	.st3{opacity:0.41;fill:#F58000;enable-background:new    ;}
</style>
<g id="Page-1">
	<g id="_x31_440-copy-10" transform="translate(-131.000000, -35.000000)">
		<g id="Group-5" transform="translate(131.000000, 35.000000)">
			<polygon id="Path" class="st0" points="63.6,42.4 66.9,42.4 66.9,58.3 72.6,58.3 72.6,61.4 63.6,61.4 			"/>
			<path id="Shape" class="st0" d="M80.2,47.2c1.7,0,3.4,0.8,4.5,2.2v-1.9h3.1v14h-3.1v-1.9c-1.1,1.4-2.7,2.2-4.5,2.2
				c-3.8,0-6.7-3.3-6.7-7.3S76.4,47.2,80.2,47.2z M80.8,50c-2.5,0-4.1,2-4.1,4.5s1.7,4.5,4.1,4.5c2.5,0,4.1-2,4.1-4.5
				S83.3,50,80.8,50z"/>
			<polygon id="Path_00000182498906085647120690000005804847572685419707_" class="st0" points="90.2,59 97.5,50.2 90.3,50.2 
				90.3,47.5 101.5,47.5 101.5,49.9 94.2,58.6 101.6,58.6 101.6,61.4 90.2,61.4 			"/>
			<path id="Shape_00000080179893798864922670000002822210551861627008_" class="st0" d="M109.4,47.2c1.7,0,3.4,0.8,4.5,2.2v-1.9
				h3.1v14h-3.1v-1.9c-1.1,1.4-2.7,2.2-4.5,2.2c-3.8,0-6.7-3.3-6.7-7.3S105.6,47.2,109.4,47.2z M110,50c-2.5,0-4.1,2-4.1,4.5
				s1.7,4.5,4.1,4.5s4.1-2,4.1-4.5S112.5,50,110,50z"/>
			<path id="Shape_00000121267947634057950030000000148522843431900344_" class="st0" d="M125.8,47.2c1.7,0,3.4,0.8,4.5,2.2v-8h3.1
				v20.1h-3.1v-1.9c-1.1,1.4-2.7,2.2-4.5,2.2c-3.8,0-6.7-3.3-6.7-7.3S121.9,47.2,125.8,47.2z M126.3,50c-2.5,0-4.1,2-4.1,4.5
				s1.7,4.5,4.1,4.5s4.1-2,4.1-4.5S128.8,50,126.3,50z"/>
			<path id="Shape_00000000901060280910216210000008693373496913666991_" class="st0" d="M142.1,47.2c1.7,0,3.4,0.8,4.5,2.2v-1.9
				h3.1v14h-3.1v-1.9c-1.1,1.4-2.7,2.2-4.5,2.2c-3.8,0-6.7-3.3-6.7-7.3S138.3,47.2,142.1,47.2z M142.7,50c-2.5,0-4.1,2-4.1,4.5
				s1.7,4.5,4.1,4.5c2.5,0,4.1-2,4.1-4.5S145.1,50,142.7,50z"/>
			
				<linearGradient id="Path_00000157275189165028055060000007719184600763571847_" gradientUnits="userSpaceOnUse" x1="-538.1943" y1="547.5778" x2="-537.1929" y2="547.5778" gradientTransform="matrix(34.0091 0 0 -27.6176 18321.4609 15175.6582)">
				<stop  offset="0" style="stop-color:#FF9200"/>
				<stop  offset="0.29" style="stop-color:#F36D00"/>
				<stop  offset="0.32" style="stop-color:#F4680B"/>
				<stop  offset="0.57" style="stop-color:#F83C72"/>
				<stop  offset="0.78" style="stop-color:#FC1CBE"/>
				<stop  offset="0.93" style="stop-color:#FE08ED"/>
				<stop  offset="1" style="stop-color:#FF00FF"/>
			</linearGradient>
			
				<path id="Path_00000119823399749815237750000012293839204500695980_" style="fill:url(#Path_00000157275189165028055060000007719184600763571847_);" d="
				M35,66.7c-0.2,0-0.5-0.1-0.7-0.2c-1.8-1-15.1-9.4-15.6-9.7c-0.4-0.2-0.6-0.5-0.7-1V44.2c0-0.4,0.2-0.8,0.6-1.1l0.1-0.1
				c1.3-0.8,5.6-3.4,6.3-3.8c0.2-0.1,0.3-0.1,0.5-0.1c0.2,0,0.3,0,0.5,0.1c0,0,6,3.9,7,4.3c0.6,0.3,1.4,0.4,2.1,0.4
				c0.8,0,1.6-0.2,2.3-0.6c0.9-0.5,6.7-4.1,6.7-4.1c0.1-0.1,0.3-0.1,0.5-0.1c0.2,0,0.4,0.1,0.5,0.1c0.8,0.4,6.1,3.7,6.4,3.9l0,0
				c0.4,0.2,0.6,0.6,0.6,1.1v11.7c0,0.4-0.3,0.8-0.7,1c-0.5,0.3-13.8,8.6-15.6,9.7C35.5,66.6,35.2,66.7,35,66.7z"/>
			<path id="Path_00000062884564631754879330000012588648073312140713_" class="st2" d="M34.9,66.7L34.9,66.7c0.3,0,0.5-0.1,0.8-0.2
				c1.8-1,15.1-9.4,15.6-9.7c0.4-0.2,0.6-0.5,0.7-1V44.2c0-0.2,0-0.4-0.1-0.6l-16.9,9.3V66.7z"/>
			<path id="Path_00000070828742471698981080000002428197058577414569_" class="st3" d="M18,55.9c0.1,0.4,0.3,0.8,0.7,1
				c0.5,0.3,13.8,8.6,15.6,9.7c0.2,0.1,0.4,0.2,0.6,0.2V52.9L18,43.7c0,0.1-0.1,0.3-0.1,0.4V55.9z"/>
		</g>
	</g>
</g>
</svg>
