<?xml version="1.0" encoding="utf-8"?>
<!-- Generator: Adobe Illustrator 27.5.0, SVG Export Plug-In . SVG Version: 6.00 Build 0)  -->
<svg version="1.1" id="katman_1" xmlns="http://www.w3.org/2000/svg" xmlns:xlink="http://www.w3.org/1999/xlink" x="0px" y="0px"
	 viewBox="0 0 841.89 595.28" style="enable-background:new 0 0 841.89 595.28;" xml:space="preserve">
<style type="text/css">
	.st0{fill:#69C4D0;}
	.st1{fill:#E83658;}
</style>
<path d="M562.29,315.78c0.11,3.41,1.65,6.62,4.74,9.37c3.08,2.76,6.95,4.08,11.58,4.08c9.16,0,14.35-4.85,15.33-11.14
	c0.55-7.5-4.97-11.8-12.9-13.57l-9.82-2.43c-12.35-3.2-18.52-9.82-18.52-19.85c0-6.29,2.43-11.37,7.28-15.33
	c4.85-4.08,10.59-6.06,17.32-6.06c7.06,0,12.9,2.09,17.53,6.17c4.64,4.08,6.95,9.38,6.95,16.1h-10.26c0-7.5-5.95-12.46-14.34-12.46
	c-3.86,0-7.17,1.11-10.03,3.2c-2.76,2.09-4.19,4.85-4.19,8.26c0,5.29,3.64,8.83,10.81,10.59l9.92,2.43
	c14.44,3.64,21.73,11.91,20.3,23.82c-0.67,5.73-3.32,10.48-7.83,14.22c-4.53,3.75-10.37,5.63-17.54,5.63
	c-7.61,0-13.9-2.32-18.97-6.84c-5.07-4.63-7.61-10.03-7.61-16.21L562.29,315.78L562.29,315.78z M623.07,337.71h-10.03v-79.51h10.04
	v35.74c1.43-2.87,3.75-5.07,7.06-6.5c3.42-1.55,6.73-2.32,9.93-2.32c12.9,0,20.95,8.38,20.84,22.83v29.78h-10.04v-29.12
	c0-8.38-4.96-13.67-12.13-13.67c-4.08,0-7.72,1.21-10.92,3.75c-3.2,2.43-4.74,6.18-4.74,11.25v27.78L623.07,337.71z M676.04,292.5
	c5.18-4.97,11.58-7.39,19.19-7.39c7.61,0,14.01,2.43,19.19,7.39c5.18,4.96,7.83,11.36,7.83,19.3c0,7.95-2.65,14.45-7.95,19.52
	c-5.18,4.97-11.58,7.5-19.08,7.5c-7.5,0-13.9-2.54-19.08-7.5c-5.18-4.96-7.83-11.47-7.83-19.52
	C668.32,303.86,670.86,297.46,676.04,292.5L676.04,292.5z M707.26,299.56c-3.21-3.09-7.28-4.64-12.02-4.64
	c-4.74,0-8.82,1.55-12.13,4.64c-3.19,3.08-4.85,7.17-4.85,12.24c0,5.18,1.66,9.38,4.85,12.57c3.31,3.2,7.39,4.74,12.13,4.74
	c4.74,0,8.82-1.55,12.02-4.74c3.31-3.2,4.96-7.39,4.96-12.57C712.22,306.73,710.57,302.65,707.26,299.56z M740.6,286.21v8.05
	c3.42-5.74,10.59-9.15,17.98-9.15c7.17,0,13.34,2.54,18.31,7.5c4.96,4.96,7.5,11.47,7.5,19.52c0,7.95-2.54,14.34-7.5,19.3
	c-4.97,4.97-11.03,7.39-18.31,7.39c-7.5,0-14.78-3.08-17.98-8.82v32.75h-10.03v-76.53L740.6,286.21L740.6,286.21z M745.78,324.59
	c3.24,2.91,7.45,4.48,11.8,4.42c9.59,0,16.65-6.73,16.65-16.77c0-5.07-1.66-9.27-4.85-12.46c-3.19-3.2-7.06-4.85-11.8-4.85
	s-8.71,1.55-12.02,4.74c-3.19,3.08-4.85,7.28-4.85,12.57C740.71,317.43,742.36,321.62,745.78,324.59z"/>
<path class="st0" d="M97.7,278.08v-4.74c-1.58-0.22-3.17-0.34-4.76-0.35c-19.47,0.02-35.25,15.81-35.27,35.28
	c0,11.51,5.62,22.29,15.06,28.88c-0.16-0.18-0.33-0.36-0.49-0.54c-5.57-6.24-8.77-14.47-8.77-23.48
	C63.41,294.08,78.64,278.48,97.7,278.08L97.7,278.08z"/>
<path class="st0" d="M98.53,329.38c8.71-0.06,15.84-6.94,16.22-15.64l0.04-76.66l13.92,0.02l-0.03-0.17
	c-0.3-1.6-0.45-3.23-0.45-4.86h-19.17l-0.03,76.81c-0.32,8.65-7.42,15.5-16.08,15.51c-2.69,0-5.24-0.67-7.48-1.85
	C88.4,326.6,93.15,329.38,98.53,329.38z M154.89,263.31v-4.57c-5.35,0-10.34-1.59-14.52-4.32
	C144.09,258.69,149.15,262.08,154.89,263.31L154.89,263.31z"/>
<path class="st1" d="M140.36,254.41c-4.23-4.84-6.56-11.05-6.56-17.48h-5.27C129.89,244.23,134.36,250.5,140.36,254.41
	L140.36,254.41z M92.94,292.02c-8.95,0.07-16.18,7.31-16.25,16.25c0,6.19,3.66,11.56,8.78,14.26c-1.98-2.73-3.05-6.02-3.05-9.39
	c0.01-8.9,7.22-16.1,16.11-16.11c1.65,0,3.25,0.28,4.75,0.75v-19.56c-1.57-0.22-3.16-0.34-4.75-0.35c-0.28,0-0.55,0.02-0.83,0.02
	l-0.13,0.02l-0.01,14.78C96.06,292.22,94.5,292,92.94,292.02z"/>
<path class="st1" d="M154.89,263.01l-0.1-0.02l-0.04,14.76c-9.56-0.01-18.88-3.03-26.63-8.63l-0.02,39.17
	c0.03,19.38-15.66,35.11-35.03,35.14c-0.04,0-0.07,0-0.11,0c-7.22,0.06-14.29-2.13-20.22-6.25c6.66,7.18,16.01,11.26,25.81,11.26
	c19.47-0.02,35.26-15.8,35.28-35.28v-38.95c7.77,5.59,17.1,8.59,26.67,8.57V263.6C158.56,263.6,156.69,263.39,154.89,263.01z"/>
<path d="M128.22,308.28v-38.96c7.77,5.59,17.1,8.59,26.67,8.57V263c-5.64-1.22-10.74-4.23-14.52-8.59
	c-6.12-3.98-10.35-10.3-11.69-17.48h-14.04l-0.03,76.81c-0.32,8.65-7.42,15.5-16.08,15.51c-5.18-0.01-10.04-2.51-13.06-6.72
	c-7.87-4.15-10.9-13.89-6.75-21.77c2.78-5.28,8.26-8.59,14.23-8.61c1.66,0,3.26,0.27,4.76,0.74v-15.02
	c-19.14,0.47-34.42,16.11-34.45,35.25c0,9.27,3.61,17.72,9.47,24.03c5.92,4.16,12.98,6.39,20.22,6.39
	c19.48-0.02,35.26-15.8,35.28-35.28V308.28z M178.45,261.45h56.76L230,277.69l-14.72-0.01v60.03h-18.35v-60.03l-18.46,0.03
	L178.45,261.45L178.45,261.45z M328.19,261.45h58.08l-5.22,16.24l-16-0.01v60.03h-18.38v-60.03l-18.46,0.03L328.19,261.45
	L328.19,261.45z M238.67,285.71h18.2l-0.02,52.02h-18.07L238.67,285.71L238.67,285.71z M264.08,261.23h18.18v35.53l18.01-17.68h21.7
	l-22.79,22.12l25.53,36.53h-20.03l-17.03-25.33l-5.39,5.24v20.1h-18.17L264.08,261.23L264.08,261.23L264.08,261.23z M456.7,261.23
	h18.17v35.53l18.02-17.68h21.7l-22.79,22.12l25.52,36.53h-20.03l-17.03-25.33l-5.39,5.24v20.1h-18.17L456.7,261.23L456.7,261.23
	L456.7,261.23z M247.76,279.77c5.06,0,9.16-4.1,9.16-9.15c0-5.06-4.1-9.16-9.15-9.16c0,0-0.01,0-0.01,0c-5.06,0-9.15,4.1-9.15,9.16
	C238.61,275.67,242.71,279.76,247.76,279.77z"/>
<path class="st0" d="M383.94,306.59c0-16.25,12.5-29.77,28.7-31.04c-0.91-0.07-1.82-0.1-2.73-0.1c-17.2,0-31.13,13.94-31.13,31.13
	c0,17.2,13.94,31.13,31.13,31.13l0,0c0.83,0,1.92-0.04,2.73-0.1C396.44,336.35,383.94,322.83,383.94,306.59L383.94,306.59z"/>
<path class="st1" d="M419.71,275.45c-0.83,0-1.93,0.05-2.75,0.1c17.14,1.37,29.92,16.37,28.55,33.51
	c-1.22,15.24-13.32,27.33-28.55,28.55c0.81,0.07,1.92,0.1,2.75,0.1c17.2,0,31.13-13.94,31.13-31.13
	C450.84,289.39,436.9,275.45,419.71,275.45z"/>
<path d="M414.79,275.45c-17.2-0.01-31.14,13.93-31.15,31.12c-0.01,17.2,13.93,31.14,31.12,31.15c0.01,0,0.02,0,0.02,0
	c17.2,0,31.13-13.94,31.13-31.13C445.93,289.39,431.99,275.45,414.79,275.45z M414.79,321.72c-8.36,0-15.14-6.78-15.14-15.14
	c0-8.36,6.78-15.14,15.14-15.14l0,0c8.36,0,15.14,6.78,15.14,15.14C429.93,314.94,423.15,321.72,414.79,321.72z"/>
</svg>
